<svg cache-id="f7d221eb27f64e658d6959d4a2b55fc5" id="em5yrbvDMEU1" xmlns="http://www.w3.org/2000/svg" xmlns:xlink="http://www.w3.org/1999/xlink" viewBox="0 0 48 48" shape-rendering="geometricPrecision" text-rendering="geometricPrecision"><g><path d="M13.5,32c1.3807,0,2.5-1.1193,2.5-2.5s-1.1193-2.5-2.5-2.5-2.5,1.1193-2.5,2.5s1.1193,2.5,2.5,2.5Z" clip-rule="evenodd" fill-rule="evenodd"/><path d="M34.5,32c1.3807,0,2.5-1.1193,2.5-2.5s-1.1193-2.5-2.5-2.5-2.5,1.1193-2.5,2.5s1.1193,2.5,2.5,2.5Z" clip-rule="evenodd" fill-rule="evenodd"/><path d="M7,37c-1.65685,0-3-1.3431-3-3v-9.2903c0-2.2734,1.28486-4.3516,3.3186-5.3675l.68193-.3407L10.3105,9.09194C10.7326,7.28117,12.3467,6,14.206,6h19.6883c1.8732,0,3.4956,1.29998,3.9038,3.12816l2.205,9.87334.6803.3401C42.716,20.358,44,22.4355,44,24.7081L44,34c0,1.6569-1.3431,3-3,3h-1.9969v1c0,2.2091-1.7924,4-4.0015,4C32.7924,42,31,40.2091,31,38v-1h-14v1.0003C17,40.2093,15.2093,42,13.0003,42s-3.99977-1.7907-3.99977-3.9997v-1.0003L7,37Z" fill="#2f88ff" stroke="#000" stroke-width="4" stroke-linejoin="round"/><path d="M14,22h20l-1.652-7.4339C32.1447,13.6511,31.3331,13,30.3957,13h-12.7914c-.9374,0-1.749.6511-1.9523,1.5661L14,22Z" fill="#43ccf8" stroke="#fff" stroke-width="4" stroke-linejoin="round"/></g></svg>

